<?xml version="1.0" encoding="UTF-8" standalone="no"?>
<!-- Created with Inkscape (http://www.inkscape.org/) -->

<svg
   width="61.931206mm"
   height="51.373173mm"
   viewBox="0 0 61.931206 51.373173"
   version="1.1"
   id="svg1"
   xml:space="preserve"
   sodipodi:docname="Logo_Site.svg"
   inkscape:version="1.3.2 (091e20e, 2023-11-25, custom)"
   inkscape:export-filename="..\..\..\..\..\Users\viber\Downloads\my-portfolio-site-main\my-portfolio-site-main\assets\icon\Logo_Site.svg"
   inkscape:export-xdpi="96"
   inkscape:export-ydpi="96"
   xmlns:inkscape="http://www.inkscape.org/namespaces/inkscape"
   xmlns:sodipodi="http://sodipodi.sourceforge.net/DTD/sodipodi-0.dtd"
   xmlns="http://www.w3.org/2000/svg"
   xmlns:svg="http://www.w3.org/2000/svg"><sodipodi:namedview
     id="namedview1"
     pagecolor="#ffffff"
     bordercolor="#000000"
     borderopacity="0.25"
     inkscape:showpageshadow="2"
     inkscape:pageopacity="0.0"
     inkscape:pagecheckerboard="0"
     inkscape:deskcolor="#d1d1d1"
     inkscape:document-units="mm"
     inkscape:zoom="2.0686842"
     inkscape:cx="52.690499"
     inkscape:cy="105.6227"
     inkscape:window-width="1920"
     inkscape:window-height="1017"
     inkscape:window-x="-8"
     inkscape:window-y="-8"
     inkscape:window-maximized="1"
     inkscape:current-layer="layer5"
     showgrid="false" /><defs
     id="defs1" /><g
     inkscape:groupmode="layer"
     id="layer2"
     inkscape:label="Слой 2"
     style="display:none"
     transform="translate(-93.295328,-141.3963)"><path
       style="fill:#1a1a1a;fill-opacity:1;stroke:none;stroke-width:0.36;stroke-linecap:round"
       d="m 137.07434,146.7534 c 0,0 0.69408,-17.03818 4.79324,-24.14708 1.89464,-3.28575 7.95858,-9.58647 10.67174,0.4522 2.71315,10.03867 0.45219,37.17022 0.45219,37.17022 0,0 0.27132,4.43148 -7.77771,9.49604 -8.04902,5.06455 -10.21955,6.51157 -10.21955,6.51157 l 0.0904,8.59166 -18.17814,0.0904 -0.0904,-24.32796 20.51857,-7.24405 -12.01735,10.13808 1.35658,1.44702 11.57613,-9.76736 c 0,0 4.25061,-4.16017 -1.1757,-8.41078 z"
       id="path1-0"
       sodipodi:nodetypes="csscscccccccccc" /><rect
       style="fill:#1a1a1a;fill-opacity:1;stroke:none;stroke-width:0.196422;stroke-linecap:round"
       id="rect1-6"
       width="6.3976612"
       height="23.155277"
       x="-204.1339"
       y="-21.911753"
       ry="2.3155277"
       transform="matrix(-0.59135343,-0.8064125,-0.82847907,0.56002003,0,0)" /><path
       style="fill:#1a1a1a;fill-opacity:1;stroke:none;stroke-width:0.36;stroke-linecap:round"
       d="m 76.211289,146.52991 c 0,0 -0.69408,-17.03818 -4.793232,-24.14708 -1.89464,-3.28575 -7.95858,-9.58647 -10.67174,0.4522 -2.71315,10.03867 -0.45219,37.17022 -0.45219,37.17022 0,0 -0.27132,4.43148 7.77771,9.49604 8.049012,5.06455 10.219542,6.51157 10.219542,6.51157 l -0.0904,8.59166 18.17814,0.0904 0.0904,-24.32796 -20.348671,-7.3029 11.847461,10.19693 -1.35658,1.44702 -11.57614,-9.76736 c 0,0 -4.250602,-4.16017 1.1757,-8.41078 z"
       id="path1-0-0"
       sodipodi:nodetypes="csscscccccccccc" /><rect
       style="fill:#1a1a1a;fill-opacity:1;stroke:none;stroke-width:0.196422;stroke-linecap:round"
       id="rect1-6-8"
       width="6.3976612"
       height="23.155277"
       x="-84.266624"
       y="149.97154"
       ry="2.3155277"
       transform="matrix(0.59135343,-0.8064125,0.82847907,0.56002003,0,0)" /></g><g
     inkscape:groupmode="layer"
     id="layer4"
     inkscape:label="Слой 4"
     style="display:none"
     transform="translate(-93.295328,-141.3963)"><rect
       style="fill:#fc0000;fill-opacity:1;stroke:none;stroke-width:0.138334;stroke-linecap:round;stroke-dasharray:none;stroke-dashoffset:0;stroke-opacity:1"
       id="rect53-2-6-2"
       width="16.821562"
       height="61.317299"
       x="81.820648"
       y="103.48663"
       ry="0" /><rect
       style="fill:#fc0000;fill-opacity:1;stroke:none;stroke-width:0.118;stroke-linecap:round;stroke-dasharray:none;stroke-dashoffset:0;stroke-opacity:1"
       id="rect53-9"
       width="11.214373"
       height="66.924484"
       x="-137.74132"
       y="86.732399"
       ry="0"
       transform="scale(-1,1)" /><rect
       style="fill:#fc0000;fill-opacity:1;stroke:none;stroke-width:0.16654;stroke-linecap:round;stroke-dasharray:none;stroke-dashoffset:0;stroke-opacity:1"
       id="rect53-2-5"
       width="33.462242"
       height="44.676617"
       x="-148.86452"
       y="97.789757"
       ry="0"
       transform="scale(-1,1)" /><rect
       style="fill:#fc0000;fill-opacity:1;stroke:none;stroke-width:0.138334;stroke-linecap:round;stroke-dasharray:none;stroke-dashoffset:0;stroke-opacity:1"
       id="rect53-2-6-2-1"
       width="16.821562"
       height="61.317299"
       x="-126.59062"
       y="103.57895"
       ry="0"
       transform="scale(-1,1)" /><rect
       style="fill:#fc0000;fill-opacity:1;stroke:none;stroke-width:0.159498;stroke-linecap:round;stroke-dasharray:none;stroke-dashoffset:0;stroke-opacity:1"
       id="rect53-2-6-2-2"
       width="22.428747"
       height="61.136421"
       x="92.995766"
       y="114.69922"
       ry="0" /></g><g
     inkscape:groupmode="layer"
     id="layer5"
     inkscape:label="Слой 5"
     transform="translate(-93.295328,-141.3963)"><path
       style="fill:none;fill-opacity:1;stroke:#4c4c4c;stroke-width:1.68181;stroke-linecap:round;stroke-dasharray:none;stroke-dashoffset:0;stroke-opacity:1"
       d="m 131.21446,162.04352 c 0.92363,-2.96382 5.45034,-5.45854 7.43677,-2.47892 2.30316,3.45474 1.88699,7.37091 2.83305,11.15514 0.50989,2.03952 0.79156,4.1704 1.94771,6.02023 0.6711,1.07377 2.39994,1.9859 2.65599,3.01011 0.64649,2.58597 -3.97902,3.88508 -5.6661,4.07252 -1.60319,0.17813 -4.1021,0.95907 -5.6661,0.17707 -5.59866,-2.79932 -6.90617,-13.63257 -4.78078,-18.94604"
       id="path58"
       inkscape:export-filename="Logo_Site.svg"
       inkscape:export-xdpi="96"
       inkscape:export-ydpi="96" /><path
       style="fill:none;fill-opacity:1;stroke:#4c4c4c;stroke-width:1.48242;stroke-linecap:round;stroke-dasharray:none;stroke-dashoffset:0;stroke-opacity:1"
       d="m 116.65793,161.40658 c 0.0623,2.66184 2.91433,-3.28121 4.39594,-2.48254 2.90327,1.56502 1.02822,23.47553 -1.72698,25.29079 -4.33109,2.85356 -16.979,-2.23712 -14.28689,-8.22336 2.47705,-5.50801 9.09076,-7.23245 10.67592,-13.4988"
       id="path59" /><path
       style="fill:none;fill-opacity:1;stroke:#4c4c4c;stroke-width:1.68181;stroke-linecap:round;stroke-dasharray:none;stroke-dashoffset:0;stroke-opacity:1"
       d="m 127.49607,190.37403 c -1.00337,-0.059 -2.07334,0.18725 -3.01011,-0.17704 -3.99249,-1.55265 5.9777,-2.68652 6.37436,-2.65601 5.12024,0.39387 -0.89708,3.86122 -3.01011,4.07253"
       id="path60" /><path
       style="fill:none;fill-opacity:1;stroke:#4c4c4c;stroke-width:1.68181;stroke-linecap:round;stroke-dasharray:none;stroke-dashoffset:0;stroke-opacity:1"
       d="m 100.05088,160.27286 c 2.76345,-2.60089 5.27616,-5.17654 8.67624,-7.08264 2.94231,-1.64947 6.60381,-2.52481 9.91567,-3.18717 0.60302,-0.12059 2.13188,-0.16765 2.1248,-0.17707 -4.7573,-6.34307 -16.39084,-9.3273 -23.372701,-4.2496 -5.100278,3.70931 -2.529214,14.95553 7.967981,7.08265"
       id="path62" /><path
       style="fill:none;fill-opacity:1;stroke:#4c4c4c;stroke-width:1.48602;stroke-linecap:round;stroke-dasharray:none;stroke-dashoffset:0;stroke-opacity:1"
       d="m 135.99523,150.00305 c 4.64955,-1.80795 13.02933,12.57167 14.16526,12.57167 1.52138,0 5.46626,-12.33266 2.83305,-15.40472 -2.53824,-2.9613 -13.76369,-1.62836 -12.92579,0.88533 0.79941,2.39823 4.26328,3.90914 6.02023,5.6661"
       id="path63" /></g></svg>
