<?xml version="1.0" encoding="UTF-8" standalone="no"?>
<!-- Created with Inkscape (http://www.inkscape.org/) -->

<svg
   width="61.931206mm"
   height="51.373173mm"
   viewBox="0 0 61.931206 51.373173"
   version="1.1"
   id="svg1"
   xml:space="preserve"
   sodipodi:docname="рисунок.svg"
   inkscape:version="1.3.2 (091e20e, 2023-11-25, custom)"
   xmlns:inkscape="http://www.inkscape.org/namespaces/inkscape"
   xmlns:sodipodi="http://sodipodi.sourceforge.net/DTD/sodipodi-0.dtd"
   xmlns="http://www.w3.org/2000/svg"
   xmlns:svg="http://www.w3.org/2000/svg"><sodipodi:namedview
     id="namedview1"
     pagecolor="#ffffff"
     bordercolor="#000000"
     borderopacity="0.25"
     inkscape:showpageshadow="2"
     inkscape:pageopacity="0.0"
     inkscape:pagecheckerboard="0"
     inkscape:deskcolor="#d1d1d1"
     inkscape:document-units="mm"
     inkscape:zoom="1.4627806"
     inkscape:cx="370.5272"
     inkscape:cy="388.64339"
     inkscape:window-width="1920"
     inkscape:window-height="1017"
     inkscape:window-x="-8"
     inkscape:window-y="-8"
     inkscape:window-maximized="1"
     inkscape:current-layer="layer5" /><defs
     id="defs1" /><g
     inkscape:groupmode="layer"
     id="layer2"
     inkscape:label="Слой 2"
     style="display:none"
     transform="translate(-93.295328,-141.3963)"><path
       style="fill:#1a1a1a;fill-opacity:1;stroke:none;stroke-width:0.36;stroke-linecap:round"
       d="m 137.07434,146.7534 c 0,0 0.69408,-17.03818 4.79324,-24.14708 1.89464,-3.28575 7.95858,-9.58647 10.67174,0.4522 2.71315,10.03867 0.45219,37.17022 0.45219,37.17022 0,0 0.27132,4.43148 -7.77771,9.49604 -8.04902,5.06455 -10.21955,6.51157 -10.21955,6.51157 l 0.0904,8.59166 -18.17814,0.0904 -0.0904,-24.32796 20.51857,-7.24405 -12.01735,10.13808 1.35658,1.44702 11.57613,-9.76736 c 0,0 4.25061,-4.16017 -1.1757,-8.41078 z"
       id="path1-0"
       sodipodi:nodetypes="csscscccccccccc" /><rect
       style="fill:#1a1a1a;fill-opacity:1;stroke:none;stroke-width:0.196422;stroke-linecap:round"
       id="rect1-6"
       width="6.3976612"
       height="23.155277"
       x="-204.1339"
       y="-21.911753"
       ry="2.3155277"
       transform="matrix(-0.59135343,-0.8064125,-0.82847907,0.56002003,0,0)" /><path
       style="fill:#1a1a1a;fill-opacity:1;stroke:none;stroke-width:0.36;stroke-linecap:round"
       d="m 76.211289,146.52991 c 0,0 -0.69408,-17.03818 -4.793232,-24.14708 -1.89464,-3.28575 -7.95858,-9.58647 -10.67174,0.4522 -2.71315,10.03867 -0.45219,37.17022 -0.45219,37.17022 0,0 -0.27132,4.43148 7.77771,9.49604 8.049012,5.06455 10.219542,6.51157 10.219542,6.51157 l -0.0904,8.59166 18.17814,0.0904 0.0904,-24.32796 -20.348671,-7.3029 11.847461,10.19693 -1.35658,1.44702 -11.57614,-9.76736 c 0,0 -4.250602,-4.16017 1.1757,-8.41078 z"
       id="path1-0-0"
       sodipodi:nodetypes="csscscccccccccc" /><rect
       style="fill:#1a1a1a;fill-opacity:1;stroke:none;stroke-width:0.196422;stroke-linecap:round"
       id="rect1-6-8"
       width="6.3976612"
       height="23.155277"
       x="-84.266624"
       y="149.97154"
       ry="2.3155277"
       transform="matrix(0.59135343,-0.8064125,0.82847907,0.56002003,0,0)" /></g><g
     inkscape:groupmode="layer"
     id="layer4"
     inkscape:label="Слой 4"
     style="display:none"
     transform="translate(-93.295328,-141.3963)"><rect
       style="fill:#fc0000;fill-opacity:1;stroke:none;stroke-width:0.138334;stroke-linecap:round;stroke-dasharray:none;stroke-dashoffset:0;stroke-opacity:1"
       id="rect53-2-6-2"
       width="16.821562"
       height="61.317299"
       x="81.820648"
       y="103.48663"
       ry="0" /><rect
       style="fill:#fc0000;fill-opacity:1;stroke:none;stroke-width:0.118;stroke-linecap:round;stroke-dasharray:none;stroke-dashoffset:0;stroke-opacity:1"
       id="rect53-9"
       width="11.214373"
       height="66.924484"
       x="-137.74132"
       y="86.732399"
       ry="0"
       transform="scale(-1,1)" /><rect
       style="fill:#fc0000;fill-opacity:1;stroke:none;stroke-width:0.16654;stroke-linecap:round;stroke-dasharray:none;stroke-dashoffset:0;stroke-opacity:1"
       id="rect53-2-5"
       width="33.462242"
       height="44.676617"
       x="-148.86452"
       y="97.789757"
       ry="0"
       transform="scale(-1,1)" /><rect
       style="fill:#fc0000;fill-opacity:1;stroke:none;stroke-width:0.138334;stroke-linecap:round;stroke-dasharray:none;stroke-dashoffset:0;stroke-opacity:1"
       id="rect53-2-6-2-1"
       width="16.821562"
       height="61.317299"
       x="-126.59062"
       y="103.57895"
       ry="0"
       transform="scale(-1,1)" /><rect
       style="fill:#fc0000;fill-opacity:1;stroke:none;stroke-width:0.159498;stroke-linecap:round;stroke-dasharray:none;stroke-dashoffset:0;stroke-opacity:1"
       id="rect53-2-6-2-2"
       width="22.428747"
       height="61.136421"
       x="92.995766"
       y="114.69922"
       ry="0" /></g><g
     inkscape:groupmode="layer"
     id="layer5"
     inkscape:label="Слой 5"
     transform="translate(-93.295328,-141.3963)"><path
       style="fill:none;fill-opacity:1;stroke:#000000;stroke-width:1.718;stroke-linecap:round;stroke-dasharray:none;stroke-dashoffset:0;stroke-opacity:1"
       d="m 131.31669,161.70402 c 0.9435,-3.02762 5.56766,-5.57604 7.59683,-2.53228 2.35274,3.52911 1.92761,7.52957 2.89403,11.39525 0.52086,2.08342 0.80861,4.26016 1.98965,6.14982 0.68554,1.09687 2.45158,2.02864 2.71315,3.0749 0.6604,2.64162 -4.06466,3.96869 -5.78806,4.16018 -1.63769,0.18196 -4.19039,0.97971 -5.78806,0.18087 -5.71917,-2.85958 -7.05482,-13.92599 -4.88368,-19.35383"
       id="path58" /><path
       style="fill:none;fill-opacity:1;stroke:#000000;stroke-width:1.51434;stroke-linecap:round;stroke-dasharray:none;stroke-dashoffset:0;stroke-opacity:1"
       d="m 116.44683,161.05337 c 0.0637,2.71913 2.97707,-3.35184 4.49057,-2.53597 2.96575,1.59871 1.05035,23.98082 -1.76415,25.83516 -4.42432,2.91498 -17.34446,-2.28528 -14.5944,-8.40038 2.53035,-5.62655 9.28642,-7.38812 10.90571,-13.78933"
       id="path59" /><path
       style="fill:none;fill-opacity:1;stroke:#000000;stroke-width:1.718;stroke-linecap:round;stroke-dasharray:none;stroke-dashoffset:0;stroke-opacity:1"
       d="m 127.51827,190.64433 c -1.02497,-0.0603 -2.11798,0.19127 -3.07491,-0.18087 -4.07842,-1.58606 6.10637,-2.74433 6.51157,-2.71316 5.23045,0.40234 -0.91639,3.94432 -3.07491,4.16017"
       id="path60" /><path
       style="fill:none;fill-opacity:1;stroke:#000000;stroke-width:1.718;stroke-linecap:round;stroke-dasharray:none;stroke-dashoffset:0;stroke-opacity:1"
       d="m 99.482336,159.89524 c 2.822924,-2.65686 5.389734,-5.28796 8.862974,-7.23508 3.00566,-1.68498 6.74596,-2.57915 10.12911,-3.25578 0.61601,-0.1232 2.17776,-0.17124 2.17053,-0.18088 -4.8597,-6.47959 -16.74363,-9.52806 -23.875767,-4.34105 -5.210059,3.78914 -2.583657,15.27742 8.139467,7.23508"
       id="path62" /><path
       style="fill:none;fill-opacity:1;stroke:#000000;stroke-width:1.518;stroke-linecap:round;stroke-dasharray:none;stroke-dashoffset:0;stroke-opacity:1"
       d="m 136.20036,149.40438 c 4.74963,-1.84686 13.30978,12.84227 14.47016,12.84227 1.55412,0 5.58392,-12.5981 2.89403,-15.7363 -2.59288,-3.02503 -14.05995,-1.66341 -13.20402,0.90439 0.81662,2.44985 4.35505,3.99329 6.14982,5.78806"
       id="path63" /></g></svg>
