<?xml version="1.0" encoding="UTF-8" standalone="no"?>
<!-- Created with Inkscape (http://www.inkscape.org/) -->

<svg
   width="80.831764mm"
   height="116.4648mm"
   viewBox="0 0 80.831764 116.4648"
   version="1.1"
   id="svg1"
   xml:space="preserve"
   sodipodi:docname="рисунок.svg"
   inkscape:version="1.3.2 (091e20e, 2023-11-25, custom)"
   xmlns:inkscape="http://www.inkscape.org/namespaces/inkscape"
   xmlns:sodipodi="http://sodipodi.sourceforge.net/DTD/sodipodi-0.dtd"
   xmlns:xlink="http://www.w3.org/1999/xlink"
   xmlns="http://www.w3.org/2000/svg"
   xmlns:svg="http://www.w3.org/2000/svg"><sodipodi:namedview
     id="namedview1"
     pagecolor="#ffffff"
     bordercolor="#000000"
     borderopacity="0.25"
     inkscape:showpageshadow="2"
     inkscape:pageopacity="0.0"
     inkscape:pagecheckerboard="0"
     inkscape:deskcolor="#d1d1d1"
     inkscape:document-units="mm"
     inkscape:zoom="1.0343421"
     inkscape:cx="315.1762"
     inkscape:cy="485.81607"
     inkscape:window-width="1920"
     inkscape:window-height="1017"
     inkscape:window-x="-8"
     inkscape:window-y="-8"
     inkscape:window-maximized="1"
     inkscape:current-layer="layer7" /><defs
     id="defs1"><pattern
       inkscape:collect="always"
       xlink:href="#DiamondPlate"
       preserveAspectRatio="xMidYMid"
       id="pattern155"
       patternTransform="matrix(0.35355339,0.35355339,-0.35355339,0.35355339,0,0)" /><pattern
       patternUnits="userSpaceOnUse"
       width="83"
       height="84"
       preserveAspectRatio="xMidYMid"
       id="DiamondPlate"
       inkscape:stockid="Diamond Plate"
       style="fill:#000000"
       patternTransform="matrix(0.35355339,0.35355339,-0.35355339,0.35355339,0,0)"
       x="0"
       y="0"
       inkscape:label="Diamondplate"
       inkscape:collect="always"
       inkscape:isstock="true"><path
         id="rect22"
         style="fill-opacity:1;stroke:none"
         d="m 29.441406,0 c -0.485427,1.590892 -0.802734,3.4057 -0.802734,5.466797 0,5.423014 2.298575,9.285029 3.939453,11.560547 1.640878,-2.275518 3.939453,-6.137533 3.939453,-11.560547 0,-2.061091 -0.315357,-3.875908 -0.800781,-5.466797 z m 42,0 c -0.485427,1.590892 -0.802734,3.4057 -0.802734,5.466797 0,5.423014 2.298575,9.285029 3.939453,11.560547 1.640878,-2.275518 3.939453,-6.137533 3.939453,-11.560547 C 78.517578,3.405706 78.202221,1.590889 77.716797,0 Z M 11.578125,1.527344 c -5.423017,0 -9.283074,2.29858 -11.558594,3.939453 2.27552,1.640874 6.135577,3.939453 11.558594,3.939453 5.451291,0 9.197845,-2.20152 11.560547,-3.939453 C 20.77597,3.728865 17.029416,1.527344 11.578125,1.527344 Z m 42,0 c -5.423019,0 -9.283075,2.29858 -11.558594,3.939453 2.275519,1.640874 6.135575,3.939453 11.558594,3.939453 5.451291,0 9.197845,-2.20152 11.560547,-3.939453 C 62.77597,3.728865 59.029416,1.527344 53.578125,1.527344 Z m -42,13.378906 C 9.840198,17.268958 7.638672,21.0155 7.638672,26.4668 c 0,5.42301 2.298575,9.28503 3.939453,11.56054 1.640878,-2.27551 3.939453,-6.13753 3.939453,-11.56054 0,-5.4513 -2.201525,-9.197842 -3.939453,-11.56055 z m 42,0 c -1.737928,2.362708 -3.939453,6.10925 -3.939453,11.56055 0,5.42301 2.298575,9.28503 3.939453,11.56054 1.640878,-2.27551 3.939453,-6.13753 3.939453,-11.56054 0,-5.4513 -2.201525,-9.197842 -3.939453,-11.56055 z m -21,7.62109 c -5.423019,0 -9.283075,2.29858 -11.558594,3.93946 2.275519,1.64087 6.135575,3.93945 11.558594,3.93945 5.451291,0 9.197845,-2.20152 11.560547,-3.93945 -2.362702,-1.73793 -6.109256,-3.93946 -11.560547,-3.93946 z m 41,0 c -5.423015,0 -9.283076,2.29858 -11.558594,3.93946 2.275518,1.64087 6.135579,3.93945 11.558594,3.93945 4.031903,0 7.125505,-1.20476 9.421875,-2.53516 V 25.0625 C 80.70363,23.7321 77.610028,22.52734 73.578125,22.52734 Z M 0,25.0625 v 2.80859 C 0.808414,27.40274 1.523479,26.91931 2.138672,26.4668 1.523479,26.01428 0.808414,25.53085 0,25.0625 Z m 32.578125,10.84375 c -1.737928,2.36271 -3.939453,6.10925 -3.939453,11.56055 0,5.42301 2.298575,9.28503 3.939453,11.56054 1.640878,-2.27551 3.939453,-6.13753 3.939453,-11.56054 0,-5.4513 -2.201525,-9.19784 -3.939453,-11.56055 z m 42,0 c -1.737928,2.36271 -3.939453,6.10925 -3.939453,11.56055 0,5.42301 2.298575,9.28503 3.939453,11.56054 1.640878,-2.27551 3.939453,-6.13753 3.939453,-11.56054 0,-5.4513 -2.201525,-9.19784 -3.939453,-11.56055 z m -63,7.62109 c -5.423018,0 -9.283075,2.29858 -11.558594,3.93946 2.275519,1.64087 6.135576,3.93945 11.558594,3.93945 5.451291,0 9.197845,-2.20152 11.560547,-3.93945 -2.362702,-1.73793 -6.109256,-3.93946 -11.560547,-3.93946 z m 42,0 c -5.423019,0 -9.283075,2.29858 -11.558594,3.93946 2.275519,1.64087 6.135575,3.93945 11.558594,3.93945 5.451291,0 9.197845,-2.20152 11.560547,-3.93945 -2.362702,-1.73793 -6.109256,-3.93946 -11.560547,-3.93946 z m -42,13.37891 C 9.840198,59.26896 7.638672,63.0155 7.638672,68.4668 c 0,5.42301 2.298575,9.28503 3.939453,11.56054 1.640878,-2.27551 3.939453,-6.13753 3.939453,-11.56054 0,-5.4513 -2.201525,-9.19784 -3.939453,-11.56055 z m 42,0 c -1.737928,2.36271 -3.939453,6.10925 -3.939453,11.56055 0,5.42301 2.298575,9.28503 3.939453,11.56054 1.640878,-2.27551 3.939453,-6.13753 3.939453,-11.56054 0,-5.4513 -2.201525,-9.19784 -3.939453,-11.56055 z m -21,7.62109 c -5.423019,0 -9.283075,2.29858 -11.558594,3.93946 2.275519,1.64087 6.135575,3.93945 11.558594,3.93945 5.451291,0 9.197845,-2.20152 11.560547,-3.93945 -2.362702,-1.73793 -6.109256,-3.93946 -11.560547,-3.93946 z m 41,0 c -5.423015,0 -9.283076,2.29858 -11.558594,3.93946 2.275518,1.64087 6.135579,3.93945 11.558594,3.93945 4.031903,0 7.125505,-1.20476 9.421875,-2.53516 V 67.0625 C 80.70363,65.7321 77.610028,64.52734 73.578125,64.52734 Z M 0,67.0625 v 2.80859 C 0.808414,69.40274 1.523479,68.91931 2.138672,68.4668 1.523479,68.01428 0.808414,67.53085 0,67.0625 Z M 32.578125,77.90625 C 31.497295,79.37563 30.239861,81.38322 29.441406,84 h 6.275391 c -0.798455,-2.61679 -2.05784,-4.62436 -3.138672,-6.09375 z m 42,0 C 73.497295,79.37563 72.239861,81.38322 71.441406,84 h 6.275391 c -0.798455,-2.61679 -2.05784,-4.62436 -3.138672,-6.09375 z" /></pattern><pattern
       inkscape:collect="always"
       xlink:href="#pattern25-8"
       preserveAspectRatio="xMidYMid"
       id="pattern42"
       patternTransform="matrix(0.6,0,0,0.6,946.66407,457.29883)"
       x="0"
       y="0" /><clipPath
       clipPathUnits="userSpaceOnUse"
       id="clipPath25"><rect
         style="fill:#ff0000;stroke:none;stroke-width:3;stroke-linecap:square;stroke-linejoin:miter;paint-order:stroke markers fill;stop-color:#000000"
         id="rect25-8"
         width="78"
         height="45.033199"
         x="763.61322"
         y="452.82422" /></clipPath><pattern
       patternUnits="userSpaceOnUse"
       width="78"
       height="45.033199"
       patternTransform="translate(946.66407,457.29883) scale(0.6)"
       preserveAspectRatio="xMidYMid"
       id="pattern25-8"
       style="fill:#ffb962"
       inkscape:label="Tiles 3"
       inkscape:collect="always"
       inkscape:isstock="true"><g
         id="g13"
         transform="translate(-763.61322,-452.82422)"
         clip-path="url(#clipPath25)"><path
           id="path11-0"
           style="color:#000000;stroke-width:3;stroke-linecap:square;paint-order:stroke markers fill"
           d="m 805.62688,448.21094 -12.5,7.21679 v 14.43555 l -12.5,7.2168 v 14.43359 l 12.5,7.2168 12.5,-7.2168 12.5,7.2168 12.5,-7.2168 v -14.43359 l -12.5,-7.2168 v -14.43555 z m 0,9.22265 4.51368,2.60547 v 14.4336 l 12.5,7.21679 v 5.21289 l -4.51368,2.60547 -12.5,-7.21679 -12.5,7.21679 -4.51367,-2.60547 v -5.21289 l 12.5,-7.21679 v -14.4336 z m 0,1.73243 -3.01367,1.73828 v 14.43359 l -12.5,7.21875 v 3.47852 l 3.01367,1.74023 12.5,-7.2168 12.5,7.2168 3.01563,-1.74023 v -3.47852 l -12.50195,-7.21875 V 460.9043 Z"
           sodipodi:nodetypes="ccccccccccccccccccccccccccccccccccccccc" /><path
           id="path20-8"
           style="color:#000000;stroke-width:3;stroke-linecap:square;paint-order:stroke markers fill"
           d="m 805.62688,403.17774 -12.5,7.2168 v 14.43554 l -12.5,7.2168 v 14.43359 l 12.5,7.2168 12.5,-7.2168 12.5,7.2168 12.5,-7.2168 v -14.43359 l -12.5,-7.2168 v -14.43554 z m 0,9.22265 4.51368,2.60547 v 14.4336 l 12.5,7.21679 v 5.21289 l -4.51368,2.60547 -12.5,-7.21679 -12.5,7.21679 -4.51367,-2.60547 v -5.21289 l 12.5,-7.21679 v -14.4336 z m 0,1.73243 -3.01367,1.73828 v 14.43359 l -12.5,7.21875 v 3.47852 l 3.01367,1.74023 12.5,-7.2168 12.5,7.2168 3.01563,-1.74023 v -3.47852 l -12.50195,-7.21875 V 415.8711 Z m -39,56.59765 -12.5,7.2168 v 14.43554 l -12.5,7.2168 v 14.43359 l 12.5,7.2168 12.5,-7.2168 12.5,7.2168 12.5,-7.2168 v -14.43359 l -12.5,-7.2168 v -14.43554 z m 0,9.22265 4.51368,2.60547 v 14.4336 l 12.5,7.21679 v 5.21289 l -4.51368,2.60547 -12.5,-7.21679 -12.5,7.21679 -4.51367,-2.60547 v -5.21289 l 12.5,-7.21679 v -14.4336 z m 0,1.73243 -3.01367,1.73828 v 14.43359 l -12.5,7.21875 v 3.47852 l 3.01367,1.74023 12.5,-7.2168 12.5,7.2168 3.01563,-1.74023 v -3.47852 l -12.50195,-7.21875 v -14.43359 z m 78,-10.95508 -12.5,7.2168 v 14.43554 l -12.5,7.2168 v 14.43359 l 12.5,7.2168 12.5,-7.2168 12.5,7.2168 12.5,-7.2168 v -14.43359 l -12.5,-7.2168 v -14.43554 z m 0,9.22265 4.51368,2.60547 v 14.4336 l 12.5,7.21679 v 5.21289 l -4.51368,2.60547 -12.5,-7.21679 -12.5,7.21679 -4.51367,-2.60547 v -5.21289 l 12.5,-7.21679 v -14.4336 z m 0,1.73243 -3.01367,1.73828 v 14.43359 l -12.5,7.21875 v 3.47852 l 3.01367,1.74023 12.5,-7.2168 12.5,7.2168 3.01563,-1.74023 v -3.47852 l -12.50195,-7.21875 v -14.43359 z"
           sodipodi:nodetypes="ccccccccccccccccccccccccccccccccccccccccccccccccccccccccccccccccccccccccccccccccccccccccccccccccccccccccccccccccccccc" /><path
           id="path19"
           style="color:#000000;stroke-width:3;stroke-linecap:square;paint-order:stroke markers fill"
           d="m 766.62688,425.69727 -12.5,7.21679 v 14.43555 l -12.5,7.2168 V 469 l 12.5,7.2168 12.5,-7.2168 12.5,7.2168 12.5,-7.2168 v -14.43359 l -12.5,-7.2168 v -14.43555 z m 0,9.22265 4.51368,2.60547 v 14.4336 l 12.5,7.21679 v 5.21289 l -4.51368,2.60547 -12.5,-7.21679 -12.5,7.21679 -4.51367,-2.60547 v -5.21289 l 12.5,-7.21679 v -14.4336 z m 0,1.73243 -3.01367,1.73828 v 14.43359 l -12.5,7.21875 v 3.47852 l 3.01367,1.74023 12.5,-7.2168 12.5,7.2168 3.01563,-1.74023 v -3.47852 l -12.50195,-7.21875 v -14.43359 z m 78,-10.95508 -12.5,7.21679 v 14.43555 l -12.5,7.2168 V 469 l 12.5,7.2168 12.5,-7.2168 12.5,7.2168 12.5,-7.2168 v -14.43359 l -12.5,-7.2168 v -14.43555 z m 0,9.22265 4.51368,2.60547 v 14.4336 l 12.5,7.21679 v 5.21289 l -4.51368,2.60547 -12.5,-7.21679 -12.5,7.21679 -4.51367,-2.60547 v -5.21289 l 12.5,-7.21679 v -14.4336 z m 0,1.73243 -3.01367,1.73828 v 14.43359 l -12.5,7.21875 v 3.47852 l 3.01367,1.74023 12.5,-7.2168 12.5,7.2168 3.01563,-1.74023 v -3.47852 l -12.50195,-7.21875 v -14.43359 z m -39,56.59765 -12.5,7.21679 v 14.43555 l -12.5,7.2168 v 14.43359 l 12.5,7.2168 12.5,-7.2168 12.5,7.2168 12.5,-7.2168 v -14.43359 l -12.5,-7.2168 v -14.43555 z m 0,9.22265 4.51368,2.60547 v 14.4336 l 12.5,7.21679 v 5.21289 l -4.51368,2.60547 -12.5,-7.21679 -12.5,7.21679 -4.51367,-2.60547 v -5.21289 l 12.5,-7.21679 v -14.4336 z m 0,1.73243 -3.01367,1.73828 v 14.43359 l -12.5,7.21875 v 3.47852 l 3.01367,1.74023 12.5,-7.2168 12.5,7.2168 3.01563,-1.74023 v -3.47852 l -12.50195,-7.21875 v -14.43359 z"
           sodipodi:nodetypes="ccccccccccccccccccccccccccccccccccccccccccccccccccccccccccccccccccccccccccccccccccccccccccccccccccccccccccccccccccccc" /></g></pattern></defs><g
     inkscape:label="Слой 1"
     inkscape:groupmode="layer"
     id="layer1"
     style="display:none"
     transform="translate(-67.995714,-79.5744)"><path
       sodipodi:type="star"
       style="fill:#eabb00;fill-opacity:1;stroke:none;stroke-width:0.195264;stroke-linecap:round;stroke-dasharray:none;stroke-opacity:1"
       id="path1"
       inkscape:flatsided="false"
       sodipodi:sides="5"
       sodipodi:cx="102.37636"
       sodipodi:cy="94.236908"
       sodipodi:r1="31.900566"
       sodipodi:r2="15.950283"
       sodipodi:arg1="-0.26179939"
       sodipodi:arg2="0.36651914"
       inkscape:rounded="0"
       inkscape:randomized="0"
       d="M 133.18994,85.980434 117.26723,99.952978 119.75065,120.99097 101.54158,110.16533 82.300681,119.0283 86.969568,98.365145 72.594614,82.804768 93.689211,80.859875 104.0459,62.38006 l 8.3683,19.46115 z"
       inkscape:transform-center-x="-0.066715844"
       inkscape:transform-center-y="-1.7772994"
       transform="matrix(0.60379715,-0.02486648,0.02486648,0.60379715,42.35127,57.121905)"
       inkscape:export-filename="Kelly\Kelly\assets\icon\Desire.svg"
       inkscape:export-xdpi="96"
       inkscape:export-ydpi="96" /><circle
       style="fill:none;fill-opacity:1;stroke:url(#pattern42);stroke-width:4.26;stroke-linecap:round;stroke-dasharray:8.52, 8.52;stroke-dashoffset:0;stroke-opacity:1"
       id="path2"
       cx="-3.3755374"
       cy="153.71413"
       r="28.21681"
       transform="rotate(-45)" /></g><g
     inkscape:groupmode="layer"
     id="layer2"
     inkscape:label="Слой 2"
     style="display:none"
     transform="translate(-67.995714,-79.5744)"><path
       style="fill:#1a1a1a;fill-opacity:1;stroke:none;stroke-width:0.36;stroke-linecap:round"
       d="m 137.07434,146.7534 c 0,0 0.69408,-17.03818 4.79324,-24.14708 1.89464,-3.28575 7.95858,-9.58647 10.67174,0.4522 2.71315,10.03867 0.45219,37.17022 0.45219,37.17022 0,0 0.27132,4.43148 -7.77771,9.49604 -8.04902,5.06455 -10.21955,6.51157 -10.21955,6.51157 l 0.0904,8.59166 -18.17814,0.0904 -0.0904,-24.32796 20.51857,-7.24405 -12.01735,10.13808 1.35658,1.44702 11.57613,-9.76736 c 0,0 4.25061,-4.16017 -1.1757,-8.41078 z"
       id="path1-0"
       sodipodi:nodetypes="csscscccccccccc" /><rect
       style="fill:#1a1a1a;fill-opacity:1;stroke:none;stroke-width:0.196422;stroke-linecap:round"
       id="rect1-6"
       width="6.3976612"
       height="23.155277"
       x="-204.1339"
       y="-21.911753"
       ry="2.3155277"
       transform="matrix(-0.59135343,-0.8064125,-0.82847907,0.56002003,0,0)" /><path
       style="fill:#1a1a1a;fill-opacity:1;stroke:none;stroke-width:0.36;stroke-linecap:round"
       d="m 76.211289,146.52991 c 0,0 -0.69408,-17.03818 -4.793232,-24.14708 -1.89464,-3.28575 -7.95858,-9.58647 -10.67174,0.4522 -2.71315,10.03867 -0.45219,37.17022 -0.45219,37.17022 0,0 -0.27132,4.43148 7.77771,9.49604 8.049012,5.06455 10.219542,6.51157 10.219542,6.51157 l -0.0904,8.59166 18.17814,0.0904 0.0904,-24.32796 -20.348671,-7.3029 11.847461,10.19693 -1.35658,1.44702 -11.57614,-9.76736 c 0,0 -4.250602,-4.16017 1.1757,-8.41078 z"
       id="path1-0-0"
       sodipodi:nodetypes="csscscccccccccc" /><rect
       style="fill:#1a1a1a;fill-opacity:1;stroke:none;stroke-width:0.196422;stroke-linecap:round"
       id="rect1-6-8"
       width="6.3976612"
       height="23.155277"
       x="-84.266624"
       y="149.97154"
       ry="2.3155277"
       transform="matrix(0.59135343,-0.8064125,0.82847907,0.56002003,0,0)" /></g><g
     inkscape:groupmode="layer"
     id="layer3"
     inkscape:label="Слой 3"
     style="display:none"
     transform="translate(-67.995714,-79.5744)"><ellipse
       style="fill:none;fill-opacity:1;stroke:#000000;stroke-width:4.68;stroke-linecap:round;stroke-dasharray:none;stroke-dashoffset:0;stroke-opacity:1"
       id="path42"
       cx="100.85316"
       cy="103.68552"
       rx="21.823702"
       ry="21.586487"
       inkscape:export-filename="Kelly\Kelly\assets\icon\Friendly.svg"
       inkscape:export-xdpi="96"
       inkscape:export-ydpi="96" /><path
       style="fill:none;fill-opacity:1;stroke:#000000;stroke-width:4.68;stroke-linecap:round;stroke-dasharray:none;stroke-dashoffset:0;stroke-opacity:1"
       d="m 112.86723,122.36328 c 4.83168,2.08711 10.15938,8.47163 11.21438,13.74665"
       id="path43" /><path
       style="fill:none;fill-opacity:1;stroke:#000000;stroke-width:4.68;stroke-linecap:round;stroke-dasharray:none;stroke-dashoffset:0;stroke-opacity:1"
       d="m 89.353227,122.36328 c -4.980061,2.77876 -11.123935,7.9984 -11.123935,14.37971"
       id="path44" /><circle
       style="fill:#000000;fill-opacity:1;stroke:none;stroke-width:17.0352;stroke-linecap:round;stroke-dasharray:none;stroke-dashoffset:0;stroke-opacity:1"
       id="path48"
       cx="99.026062"
       cy="94.485634"
       r="2.9097099" /><circle
       style="fill:#000000;fill-opacity:1;stroke:none;stroke-width:17.0352;stroke-linecap:round;stroke-dasharray:none;stroke-dashoffset:0;stroke-opacity:1"
       id="path48-7"
       cx="111.25569"
       cy="94.490685"
       r="2.9097099" /><path
       style="fill:#000000;fill-opacity:1;stroke:#000000;stroke-width:4.68;stroke-linecap:round;stroke-dasharray:none;stroke-dashoffset:0;stroke-opacity:1"
       d="m 98.226691,103.72636 c 5.337969,3.22191 11.771469,1.50061 13.237579,0.2558"
       id="path49"
       sodipodi:nodetypes="cc" /><rect
       style="fill:#000000;fill-opacity:1;stroke:#000000;stroke-width:2.13829;stroke-linecap:round;stroke-dasharray:none;stroke-dashoffset:0;stroke-opacity:1"
       id="rect49"
       width="1.7531176"
       height="9.0577745"
       x="122.95251"
       y="63.635307"
       ry="0.87655878"
       transform="rotate(31.944328)" /><rect
       style="fill:#000000;fill-opacity:1;stroke:#000000;stroke-width:2.97785;stroke-linecap:round;stroke-dasharray:none;stroke-dashoffset:0;stroke-opacity:1"
       id="rect49-9-2"
       width="2.4476993"
       height="12.581963"
       x="-105.14989"
       y="124.22662"
       ry="1.2176092"
       transform="matrix(-0.0958847,-0.99539245,0.99508829,-0.09899136,0,0)" /><rect
       style="fill:#000000;fill-opacity:1;stroke:#000000;stroke-width:2.97787;stroke-linecap:round;stroke-dasharray:none;stroke-dashoffset:0;stroke-opacity:1"
       id="rect49-9-0-6"
       width="2.4423196"
       height="12.609838"
       x="-139.58199"
       y="71.617271"
       ry="1.2203069"
       transform="matrix(-0.52052444,-0.85384677,0.85073517,-0.52559459,0,0)" /></g><g
     inkscape:groupmode="layer"
     id="layer4"
     inkscape:label="Слой 4"
     style="display:none"
     transform="translate(-67.995714,-79.5744)"><rect
       style="fill:#fc0000;fill-opacity:1;stroke:none;stroke-width:0.118;stroke-linecap:round;stroke-dasharray:none;stroke-dashoffset:0;stroke-opacity:1"
       id="rect53"
       width="11.214373"
       height="66.924484"
       x="70.722893"
       y="86.820953"
       ry="0"
       inkscape:export-filename="Kelly\Kelly\assets\icon\DETERMINATION.svg"
       inkscape:export-xdpi="96"
       inkscape:export-ydpi="96" /><rect
       style="fill:#fc0000;fill-opacity:1;stroke:none;stroke-width:0.16654;stroke-linecap:round;stroke-dasharray:none;stroke-dashoffset:0;stroke-opacity:1"
       id="rect53-2"
       width="33.462242"
       height="44.676617"
       x="59.599705"
       y="97.878311"
       ry="0" /><rect
       style="fill:#fc0000;fill-opacity:1;stroke:none;stroke-width:0.151947;stroke-linecap:round;stroke-dasharray:none;stroke-dashoffset:0;stroke-opacity:1"
       id="rect53-2-6"
       width="27.855057"
       height="44.676617"
       x="65.28476"
       y="92.406906"
       ry="0" /><rect
       style="fill:#fc0000;fill-opacity:1;stroke:none;stroke-width:0.138334;stroke-linecap:round;stroke-dasharray:none;stroke-dashoffset:0;stroke-opacity:1"
       id="rect53-2-6-2"
       width="16.821562"
       height="61.317299"
       x="81.820648"
       y="103.48663"
       ry="0" /><rect
       style="fill:#fc0000;fill-opacity:1;stroke:none;stroke-width:0.118;stroke-linecap:round;stroke-dasharray:none;stroke-dashoffset:0;stroke-opacity:1"
       id="rect53-9"
       width="11.214373"
       height="66.924484"
       x="-137.74132"
       y="86.732399"
       ry="0"
       transform="scale(-1,1)" /><rect
       style="fill:#fc0000;fill-opacity:1;stroke:none;stroke-width:0.16654;stroke-linecap:round;stroke-dasharray:none;stroke-dashoffset:0;stroke-opacity:1"
       id="rect53-2-5"
       width="33.462242"
       height="44.676617"
       x="-148.86452"
       y="97.789757"
       ry="0"
       transform="scale(-1,1)" /><rect
       style="fill:#fc0000;fill-opacity:1;stroke:none;stroke-width:0.151947;stroke-linecap:round;stroke-dasharray:none;stroke-dashoffset:0;stroke-opacity:1"
       id="rect53-2-6-4"
       width="27.855057"
       height="44.676617"
       x="-143.17947"
       y="92.318352"
       ry="0"
       transform="scale(-1,1)" /><rect
       style="fill:#fc0000;fill-opacity:1;stroke:none;stroke-width:0.138334;stroke-linecap:round;stroke-dasharray:none;stroke-dashoffset:0;stroke-opacity:1"
       id="rect53-2-6-2-1"
       width="16.821562"
       height="61.317299"
       x="-126.59062"
       y="103.57895"
       ry="0"
       transform="scale(-1,1)" /><rect
       style="fill:#fc0000;fill-opacity:1;stroke:none;stroke-width:0.159498;stroke-linecap:round;stroke-dasharray:none;stroke-dashoffset:0;stroke-opacity:1"
       id="rect53-2-6-2-2"
       width="22.428747"
       height="61.136421"
       x="92.995766"
       y="114.69922"
       ry="0" /></g><g
     inkscape:groupmode="layer"
     id="layer5"
     inkscape:label="Слой 5"
     style="display:none"
     transform="translate(-67.995714,-79.5744)"><path
       style="fill:none;fill-opacity:1;stroke:#000000;stroke-width:1.718;stroke-linecap:round;stroke-dasharray:none;stroke-dashoffset:0;stroke-opacity:1"
       d="m 131.31669,161.70402 c 0.9435,-3.02762 5.56766,-5.57604 7.59683,-2.53228 2.35274,3.52911 1.92761,7.52957 2.89403,11.39525 0.52086,2.08342 0.80861,4.26016 1.98965,6.14982 0.68554,1.09687 2.45158,2.02864 2.71315,3.0749 0.6604,2.64162 -4.06466,3.96869 -5.78806,4.16018 -1.63769,0.18196 -4.19039,0.97971 -5.78806,0.18087 -5.71917,-2.85958 -7.05482,-13.92599 -4.88368,-19.35383"
       id="path58"
       inkscape:export-filename="Kelly\Kelly\assets\icon\Logo.svg"
       inkscape:export-xdpi="96"
       inkscape:export-ydpi="96" /><path
       style="fill:none;fill-opacity:1;stroke:#000000;stroke-width:1.51434;stroke-linecap:round;stroke-dasharray:none;stroke-dashoffset:0;stroke-opacity:1"
       d="m 116.44683,161.05337 c 0.0637,2.71913 2.97707,-3.35184 4.49057,-2.53597 2.96575,1.59871 1.05035,23.98082 -1.76415,25.83516 -4.42432,2.91498 -17.34446,-2.28528 -14.5944,-8.40038 2.53035,-5.62655 9.28642,-7.38812 10.90571,-13.78933"
       id="path59" /><path
       style="fill:none;fill-opacity:1;stroke:#000000;stroke-width:1.718;stroke-linecap:round;stroke-dasharray:none;stroke-dashoffset:0;stroke-opacity:1"
       d="m 127.51827,190.64433 c -1.02497,-0.0603 -2.11798,0.19127 -3.07491,-0.18087 -4.07842,-1.58606 6.10637,-2.74433 6.51157,-2.71316 5.23045,0.40234 -0.91639,3.94432 -3.07491,4.16017"
       id="path60" /><path
       style="fill:none;fill-opacity:1;stroke:#000000;stroke-width:1.718;stroke-linecap:round;stroke-dasharray:none;stroke-dashoffset:0;stroke-opacity:1"
       d="m 99.482336,159.89524 c 2.822924,-2.65686 5.389734,-5.28796 8.862974,-7.23508 3.00566,-1.68498 6.74596,-2.57915 10.12911,-3.25578 0.61601,-0.1232 2.17776,-0.17124 2.17053,-0.18088 -4.8597,-6.47959 -16.74363,-9.52806 -23.875767,-4.34105 -5.210059,3.78914 -2.583657,15.27742 8.139467,7.23508"
       id="path62" /><path
       style="fill:none;fill-opacity:1;stroke:#000000;stroke-width:1.518;stroke-linecap:round;stroke-dasharray:none;stroke-dashoffset:0;stroke-opacity:1"
       d="m 136.20036,149.40438 c 4.74963,-1.84686 13.30978,12.84227 14.47016,12.84227 1.55412,0 5.58392,-12.5981 2.89403,-15.7363 -2.59288,-3.02503 -14.05995,-1.66341 -13.20402,0.90439 0.81662,2.44985 4.35505,3.99329 6.14982,5.78806"
       id="path63" /></g><g
     inkscape:groupmode="layer"
     id="layer6"
     inkscape:label="Слой 6"
     style="display:none"
     transform="translate(-67.995714,-79.5744)"><path
       style="fill:none;fill-opacity:1;stroke:#000000;stroke-width:1.518;stroke-linecap:round;stroke-dasharray:none;stroke-dashoffset:0;stroke-opacity:1"
       d="m 92.59912,138.89868 c -9.319067,-0.0442 -15.937156,-9.95858 -17.905907,-18.16171 -2.1526,-8.96916 -2.5483,-17.47356 0.511598,-26.347259 1.949048,-5.65224 5.583746,-13.535419 11.25514,-16.371114 12.466528,-6.233266 29.712979,-6.115685 38.625599,6.139166 18.96488,26.076707 1.00743,55.764117 -29.161046,55.764117"
       id="path77"
       inkscape:export-filename="Kelly\Kelly\assets\icon\Retopo.svg"
       inkscape:export-xdpi="96"
       inkscape:export-ydpi="96" /><path
       style="fill:none;fill-opacity:1;stroke:#000000;stroke-width:1.518;stroke-linecap:round;stroke-dasharray:none;stroke-dashoffset:0;stroke-opacity:1"
       d="m 117.66739,140.43347 c 1.56628,4.60556 2.43751,9.47879 3.06958,14.32473 0.61081,4.68283 3.35237,18.13472 -0.76739,22.25448 -4.03928,4.03929 -36.314797,2.49475 -41.183588,-3.06958 -6.62653,-7.57318 0.03614,-22.82029 4.604377,-29.67265"
       id="path78" /><path
       style="fill:#00ff00;fill-opacity:1;stroke:#000000;stroke-width:1.50706;stroke-linecap:round;stroke-dasharray:none;stroke-dashoffset:0;stroke-opacity:1"
       d="m 89.012433,76.989971 c 10.218788,19.510006 4.35651,41.356429 4.35651,61.658339"
       id="path79" /><path
       style="fill:#00ff00;fill-opacity:1;stroke:#000000;stroke-width:1.518;stroke-linecap:round;stroke-dasharray:none;stroke-dashoffset:0;stroke-opacity:1"
       d="m 103.59846,73.925818 c 5.65325,20.676825 4.61071,42.942532 0.5116,63.438072"
       id="path80" /><path
       style="fill:#00ff00;fill-opacity:1;stroke:#000000;stroke-width:1.518;stroke-linecap:round;stroke-dasharray:none;stroke-dashoffset:0;stroke-opacity:1"
       d="m 115.3652,75.972206 c 2.89036,18.192541 4.12784,41.223834 -2.81378,58.577894"
       id="path81" /><path
       style="fill:#00ff00;fill-opacity:1;stroke:#000000;stroke-width:1.50159;stroke-linecap:round;stroke-dasharray:none;stroke-dashoffset:0;stroke-opacity:1"
       d="m 125.59863,85.42856 c 4.03481,15.02872 0.36408,29.65044 -2.56769,43.88586"
       id="path82" /><path
       style="fill:#00ff00;fill-opacity:1;stroke:#000000;stroke-width:1.50652;stroke-linecap:round;stroke-dasharray:none;stroke-dashoffset:0;stroke-opacity:1"
       d="m 79.803424,84.535748 c 4.740073,15.208943 8.922212,35.872792 4.356502,51.554872"
       id="path83" /><path
       style="fill:#00ff00;fill-opacity:1;stroke:#000000;stroke-width:1.518;stroke-linecap:round;stroke-dasharray:none;stroke-dashoffset:0;stroke-opacity:1"
       d="M 75.204811,94.901307 C 91.094374,86.908755 112.4542,86.755395 128.66673,90.808528"
       id="path84" /><path
       style="fill:#00ff00;fill-opacity:1;stroke:#000000;stroke-width:1.518;stroke-linecap:round;stroke-dasharray:none;stroke-dashoffset:0;stroke-opacity:1"
       d="m 73.670019,106.41225 c 15.769262,-6.40941 43.005091,-9.321196 58.577891,-1.53479"
       id="path85" /><path
       style="fill:#00ff00;fill-opacity:1;stroke:#000000;stroke-width:1.518;stroke-linecap:round;stroke-dasharray:none;stroke-dashoffset:0;stroke-opacity:1"
       d="m 73.925818,116.6442 c 16.205015,-3.06996 39.372622,-8.09139 55.764112,-1.5348"
       id="path86" /><path
       style="fill:#00ff00;fill-opacity:1;stroke:#000000;stroke-width:1.518;stroke-linecap:round;stroke-dasharray:none;stroke-dashoffset:0;stroke-opacity:1"
       d="m 76.483804,125.59715 c 16.37865,-4.21506 33.238056,-2.17692 49.369146,0.5116"
       id="path87" /><path
       style="fill:#00ff00;fill-opacity:1;stroke:#000000;stroke-width:1.49033;stroke-linecap:round;stroke-dasharray:none;stroke-dashoffset:0;stroke-opacity:1"
       d="m 81.713852,133.52909 c 10.31177,0.48816 23.485798,-4.09528 33.153568,1.03486"
       id="path88" /><path
       style="fill:#00ff00;fill-opacity:1;stroke:#000000;stroke-width:1.518;stroke-linecap:round;stroke-dasharray:none;stroke-dashoffset:0;stroke-opacity:1"
       d="m 79.809186,84.157763 c 12.833773,-7.490621 33.685604,-7.605929 45.532164,1.278994"
       id="path89" /><path
       style="fill:#00ff00;fill-opacity:1;stroke:#000000;stroke-width:1.44695;stroke-linecap:round;stroke-dasharray:none;stroke-dashoffset:0;stroke-opacity:1"
       d="m 89.554892,145.00238 c 2.251883,10.08628 -1.473849,20.54361 -4.153718,29.99938"
       id="path90" /><path
       style="fill:#00ff00;fill-opacity:1;stroke:#000000;stroke-width:1.49928;stroke-linecap:round;stroke-dasharray:none;stroke-dashoffset:0;stroke-opacity:1"
       d="m 104.37317,142.72635 c 1.48956,11.41872 1.21167,26.63283 -5.900085,35.83043"
       id="path91" /><path
       style="fill:#00ff00;fill-opacity:1;stroke:#000000;stroke-width:1.49771;stroke-linecap:round;stroke-dasharray:none;stroke-dashoffset:0;stroke-opacity:1"
       d="m 115.88515,141.06283 c 2.05235,12.96818 -1.46108,25.87779 -6.15767,37.23899"
       id="path92" /><path
       style="fill:#00ff00;fill-opacity:1;stroke:#000000;stroke-width:1.41895;stroke-linecap:round;stroke-dasharray:none;stroke-dashoffset:0;stroke-opacity:1"
       d="m 121.1702,160.84784 c -0.60118,5.44611 -2.35002,13.11747 -4.57553,17.49337"
       id="path93" /><path
       style="fill:#00ff00;fill-opacity:1;stroke:#000000;stroke-width:1.518;stroke-linecap:round;stroke-dasharray:none;stroke-dashoffset:0;stroke-opacity:1"
       d="m 82.622971,146.82844 c 1.208508,9.00637 -0.426873,18.59021 -2.557986,27.11466"
       id="path94" /><path
       style="fill:#00ff00;fill-opacity:1;stroke:#000000;stroke-width:1.518;stroke-linecap:round;stroke-dasharray:none;stroke-dashoffset:0;stroke-opacity:1"
       d="m 83.390369,145.03785 c 11.084234,-0.64972 26.372681,1.19598 35.811811,-5.88337"
       id="path96" /><path
       style="fill:#00ff00;fill-opacity:1;stroke:#000000;stroke-width:1.518;stroke-linecap:round;stroke-dasharray:none;stroke-dashoffset:0;stroke-opacity:1"
       d="m 79.809186,151.17702 c 12.856569,2.57299 26.869584,1.40153 38.369804,-4.34858"
       id="path97" /><path
       style="fill:#00ff00;fill-opacity:1;stroke:#000000;stroke-width:1.518;stroke-linecap:round;stroke-dasharray:none;stroke-dashoffset:0;stroke-opacity:1"
       d="m 77.251199,157.06038 c 11.637793,3.70447 32.577411,6.81559 42.462581,-3.06958"
       id="path98" /><path
       style="fill:#00ff00;fill-opacity:1;stroke:#000000;stroke-width:1.49836;stroke-linecap:round;stroke-dasharray:none;stroke-dashoffset:0;stroke-opacity:1"
       d="m 76.090326,164.4687 c 14.4634,4.58155 31.798504,8.59278 45.935424,1.28374"
       id="path99" /><path
       style="fill:#00ff00;fill-opacity:1;stroke:#000000;stroke-width:1.49901;stroke-linecap:round;stroke-dasharray:none;stroke-dashoffset:0;stroke-opacity:1"
       d="m 76.985907,170.35242 c 13.778393,6.66559 29.657443,8.87275 44.272153,3.84806"
       id="path100" /><path
       style="fill:none;fill-opacity:1;stroke:#000000;stroke-width:1.518;stroke-linecap:round;stroke-dasharray:none;stroke-dashoffset:0;stroke-opacity:1"
       d="m 71.623628,143.75885 c -4.932677,-0.27222 -8.555942,3.77319 -11.766738,7.16237 -1.878949,1.98333 -3.529136,4.14187 -4.604377,6.65076 -4.417665,10.30789 6.00541,11.04091 12.022537,5.88337 3.466158,-2.97099 13.284586,-17.90929 4.348578,-19.6965 z"
       id="path101" /><path
       style="fill:none;fill-opacity:1;stroke:#000000;stroke-width:1.518;stroke-linecap:round;stroke-dasharray:none;stroke-dashoffset:0;stroke-opacity:1"
       d="m 124.31816,145.80525 c 1.26938,-3.1054 3.24749,-6.04182 5.37177,-8.69716 2.66588,-3.33235 5.28879,-6.84273 8.69715,-9.46455 1.98562,-1.5274 5.55141,-3.26331 7.41817,-1.0232 10.27235,12.32683 -12.27746,31.71992 -22.51029,21.48709"
       id="path102" /><path
       style="fill:#00ff00;fill-opacity:1;stroke:#000000;stroke-width:1.518;stroke-linecap:round;stroke-dasharray:none;stroke-dashoffset:0;stroke-opacity:1"
       d="m 70.472535,144.0786 c -3.011713,3.14305 -15.859517,13.06623 -15.859517,16.88272"
       id="path103" /><path
       style="fill:#00ff00;fill-opacity:1;stroke:#000000;stroke-width:1.518;stroke-linecap:round;stroke-dasharray:none;stroke-dashoffset:0;stroke-opacity:1"
       d="m 74.181615,145.7413 c -6.409047,5.12128 -11.894884,11.31958 -15.539768,18.60935"
       id="path104" /><path
       style="fill:#00ff00;fill-opacity:1;stroke:#000000;stroke-width:1.518;stroke-linecap:round;stroke-dasharray:none;stroke-dashoffset:0;stroke-opacity:1"
       d="m 74.693213,150.60147 c -3.423772,4.67368 -7.529981,8.80093 -10.743544,13.62128"
       id="path105" /><path
       style="fill:#00ff00;fill-opacity:1;stroke:#000000;stroke-width:1.518;stroke-linecap:round;stroke-dasharray:none;stroke-dashoffset:0;stroke-opacity:1"
       d="m 64.333368,146.44474 c 3.62789,1.18696 5.479079,3.97681 7.22631,7.03446"
       id="path106" /><path
       style="fill:#00ff00;fill-opacity:1;stroke:#000000;stroke-width:1.45944;stroke-linecap:round;stroke-dasharray:none;stroke-dashoffset:0;stroke-opacity:1"
       d="m 59.955511,150.95589 c 3.565108,1.6115 7.475186,4.7696 7.988315,9.26731"
       id="path107" /><path
       style="fill:#00ff00;fill-opacity:1;stroke:#000000;stroke-width:1.518;stroke-linecap:round;stroke-dasharray:none;stroke-dashoffset:0;stroke-opacity:1"
       d="m 126.23665,142.09616 c 3.60951,0.88263 6.65076,4.23432 6.65076,7.99371"
       id="path110" /><path
       style="fill:#00ff00;fill-opacity:1;stroke:#000000;stroke-width:1.518;stroke-linecap:round;stroke-dasharray:none;stroke-dashoffset:0;stroke-opacity:1"
       d="m 130.64917,135.957 c 3.86814,2.07197 8.59681,6.62223 7.99371,11.44698"
       id="path111" /><path
       style="fill:#00ff00;fill-opacity:1;stroke:#000000;stroke-width:1.518;stroke-linecap:round;stroke-dasharray:none;stroke-dashoffset:0;stroke-opacity:1"
       d="m 134.678,131.22472 c 5.41606,0.32121 9.82905,4.38049 10.87145,9.59245"
       id="path112" /><path
       style="fill:#00ff00;fill-opacity:1;stroke:#000000;stroke-width:1.518;stroke-linecap:round;stroke-dasharray:none;stroke-dashoffset:0;stroke-opacity:1"
       d="m 139.85793,127.38774 c 2.9699,0.4259 6.21695,2.09411 7.8658,4.73228"
       id="path113" /><path
       style="fill:#00ff00;fill-opacity:1;stroke:#000000;stroke-width:1.518;stroke-linecap:round;stroke-dasharray:none;stroke-dashoffset:0;stroke-opacity:1"
       d="m 124.6379,148.61903 c 4.50097,-6.7509 7.84345,-14.84273 14.83633,-19.50465 1.03045,-0.68697 2.61992,-0.99038 3.77303,-1.47084"
       id="path114" /><path
       style="fill:#00ff00;fill-opacity:1;stroke:#000000;stroke-width:1.518;stroke-linecap:round;stroke-dasharray:none;stroke-dashoffset:0;stroke-opacity:1"
       d="m 128.53883,150.72937 c 4.57939,-6.12967 9.24607,-13.3849 15.09213,-18.48146 0.88435,-0.77098 2.64126,-1.6142 3.58118,-2.36613"
       id="path115" /><path
       style="fill:#00ff00;fill-opacity:1;stroke:#000000;stroke-width:1.4844;stroke-linecap:round;stroke-dasharray:none;stroke-dashoffset:0;stroke-opacity:1"
       d="m 132.35901,150.74617 c 3.9513,-4.29223 9.79592,-11.54551 15.18968,-13.97463"
       id="path116" /><path
       style="fill:#00ff00;fill-opacity:1;stroke:#000000;stroke-width:1.41886;stroke-linecap:round;stroke-dasharray:none;stroke-dashoffset:0;stroke-opacity:1"
       d="m 123.9416,145.82771 c 2.64261,0.87836 3.82438,2.81821 4.81745,4.97639"
       id="path117" /></g><g
     inkscape:groupmode="layer"
     id="layer7"
     inkscape:label="Слой 7"
     transform="translate(-67.995714,-79.5744)"><path
       style="fill:none;fill-opacity:1;stroke:#000000;stroke-width:1.218;stroke-linecap:round;stroke-dasharray:none;stroke-dashoffset:0;stroke-opacity:1"
       d="m 108.20284,161.66476 c -4.80573,-1.19476 -9.666132,-1.02319 -14.580526,-1.02319 -21.131408,0 -38.044924,19.03425 -7.929758,23.78927 13.388448,2.11397 31.698124,1.57483 43.741574,-5.11597 1.80932,-1.00518 9.76909,-6.84157 7.41816,-9.97615 -7.42907,-9.90542 -22.02913,-6.01888 -31.71903,-8.44135"
       id="path132"
       inkscape:export-filename="Kelly\Kelly\assets\icon\Sculpt.svg"
       inkscape:export-xdpi="96"
       inkscape:export-ydpi="96" /><path
       style="fill:none;fill-opacity:1;stroke:#000000;stroke-width:1.218;stroke-linecap:round;stroke-dasharray:none;stroke-dashoffset:0;stroke-opacity:1"
       d="m 137.36388,171.38511 c -1.01096,15.344 3.73251,19.53995 -11.76673,21.99869 -8.83009,1.40077 -17.18679,2.04639 -26.091466,2.04639 -7.038451,0 -24.786624,-0.48575 -29.672645,-5.37177 -2.465001,-2.46501 -0.451373,-11.18747 -0.479623,-15.89149"
       id="path133"
       sodipodi:nodetypes="csssc" /><path
       style="fill:none;fill-opacity:1;stroke:#000000;stroke-width:1.518;stroke-linecap:round;stroke-dasharray:none;stroke-dashoffset:0;stroke-opacity:1"
       d="m 103.34266,129.68993 c -9.21926,-5.15229 -9.017692,-28.54155 -4.348574,-36.323415 4.361174,-7.26862 11.410854,-10.928165 19.440704,-12.534133 9.1023,-1.820463 17.56415,1.35119 23.27768,8.697153 3.41959,4.396621 4.89874,10.188268 5.88336,15.603725 5.07367,27.90514 -31.84378,35.7339 -45.91586,23.14978"
       id="path142"
       sodipodi:nodetypes="cssscc" /><path
       style="fill:none;fill-opacity:1;stroke:#000000;stroke-width:1.518;stroke-linecap:round;stroke-dasharray:none;stroke-dashoffset:0;stroke-opacity:1"
       d="m 131.22472,133.27111 c 8.45561,4.86783 6.73772,23.95305 4.60438,32.48643"
       id="path143" /><path
       style="fill:#ffffff;fill-opacity:1;stroke:none;stroke-width:1.51649;stroke-linecap:round;stroke-dasharray:none;stroke-dashoffset:0;stroke-opacity:1"
       d="m 94.508221,144.97077 c 0,0 -1.1757,-1.48927 -2.44184,-0.94772 -1.266139,0.54155 -3.527102,14.84749 -3.527102,14.84749 l 0.633071,0.99285 c 0,0 1.899209,0.22564 2.3514,-0.22565 0.452194,-0.45129 3.210568,-11.32742 3.210568,-11.32742 z"
       id="path146" /><path
       style="fill:#ffffff;fill-opacity:1;stroke:none;stroke-width:1.518;stroke-linecap:round;stroke-dasharray:none;stroke-dashoffset:0;stroke-opacity:1"
       d="m 110.28974,147.91215 2.98447,-1.31136 4.06973,13.92753 -2.3514,0.40697 z"
       id="path147" /><path
       style="fill:#ffffff;fill-opacity:1;stroke:none;stroke-width:1.518;stroke-linecap:round;stroke-dasharray:none;stroke-dashoffset:0;stroke-opacity:1"
       d="m 89.308008,159.80481 0.03391,0.15827 2.000951,-0.0339 0.192183,-0.73481 z"
       id="path148" /><path
       style="fill:#ffffff;fill-opacity:1;stroke:none;stroke-width:1.518;stroke-linecap:round;stroke-dasharray:none;stroke-dashoffset:0;stroke-opacity:1"
       d="m 98.706314,159.74627 c 0,0 -1.854541,1.21505 -4.028829,1.79059 -2.17429,0.57555 11.894635,1.43887 11.894635,1.43887 l 3.32539,-0.57555 c 0,0 -3.90094,-1.85454 -6.07522,-2.68588 -2.17429,-0.83135 -4.092782,-0.31975 -4.092782,-0.31975 z"
       id="path149" /><path
       style="fill:#ffffff;fill-opacity:1;stroke:none;stroke-width:1.518;stroke-linecap:round;stroke-dasharray:none;stroke-dashoffset:0;stroke-opacity:1"
       d="m 106.78524,161.02573 c 0,0 3.91147,1.24353 6.37592,1.04004 2.46445,-0.20348 2.55489,-0.0904 2.55489,-0.0904 l 0.13565,1.13048 -7.91336,-0.33914 z"
       id="path150" /><path
       style="fill:url(#pattern155);fill-opacity:1;stroke:#000000;stroke-width:1.597;stroke-linecap:round;stroke-dasharray:none;stroke-dashoffset:0;stroke-opacity:1"
       d="m 94.161599,139.71731 c -2.615352,19.12772 -14.538918,45.05406 17.542611,34.52957 12.28588,-4.03043 0.6848,-20.6202 -0.45566,-27.3546 -0.28671,-1.69304 -1.76051,-3.99504 -1.13912,-5.82967 0.59451,-1.75531 6.16364,-5.15215 2.73391,-6.50232 -6.4347,-2.53312 -34.770705,1.19848 -18.681741,5.15702 z"
       id="path134" /><path
       style="fill:#ffffff;fill-opacity:1;stroke:#000000;stroke-width:1.518;stroke-linecap:round;stroke-dasharray:none;stroke-dashoffset:0;stroke-opacity:1"
       d="m 124.82975,143.24726 c -4.62849,-0.33369 -8.30095,1.22283 -12.27833,2.81378 -1.75294,0.70118 -3.47988,1.62308 -5.11598,2.55799 -18.077506,10.33 14.90216,21.12876 19.6965,4.34858 1.08933,-3.81264 0.74333,-6.67484 -2.30219,-9.72035 z"
       id="path144"
       sodipodi:nodetypes="cscsc" /><path
       style="fill:#ffffff;fill-opacity:1;stroke:#000000;stroke-width:1.518;stroke-linecap:round;stroke-dasharray:none;stroke-dashoffset:0;stroke-opacity:1"
       d="m 89.01794,144.27045 c -2.697285,3.07026 -5.17511,6.92718 -5.627571,10.99935 -0.699244,6.29319 12.139818,7.3355 15.34792,3.32538 6.393281,-7.9916 -6.934565,-19.8963 -9.720349,-14.32473 z"
       id="path145" /></g></svg>
